<svg xmlns="http://www.w3.org/2000/svg" width="1440" height="900"><path d="M621,475L445,467L618,597Z" fill="#242f2f" stroke="#242f2f" stroke-width="1.51"/><path d="M445,467L466,643L618,597Z" fill="#242e2f" stroke="#242e2f" stroke-width="1.51"/><path d="M445,467L312,620L466,643Z" fill="#232d2e" stroke="#232d2e" stroke-width="1.51"/><path d="M466,643L617,810L618,597Z" fill="#253032" stroke="#253032" stroke-width="1.51"/><path d="M312,620L474,782L466,643Z" fill="#242e30" stroke="#242e30" stroke-width="1.51"/><path d="M621,475L466,277L445,467Z" fill="#232c2c" stroke="#232c2c" stroke-width="1.51"/><path d="M445,467L287,426L312,620Z" fill="#232b2c" stroke="#232b2c" stroke-width="1.51"/><path d="M466,277L287,426L445,467Z" fill="#232a2b" stroke="#232a2b" stroke-width="1.51"/><path d="M621,475L655,283L466,277Z" fill="#232d2c" stroke="#232d2c" stroke-width="1.51"/><path d="M820,433L655,283L621,475Z" fill="#242f2e" stroke="#242f2e" stroke-width="1.51"/><path d="M474,782L617,810L466,643Z" fill="#243032" stroke="#243032" stroke-width="1.51"/><path d="M826,625L820,433L621,475Z" fill="#253131" stroke="#253131" stroke-width="1.51"/><path d="M826,625L621,475L618,597Z" fill="#253131" stroke="#253131" stroke-width="1.51"/><path d="M617,810L826,625L618,597Z" fill="#263233" stroke="#263233" stroke-width="1.51"/><path d="M466,277L312,272L287,426Z" fill="#222829" stroke="#222829" stroke-width="1.51"/><path d="M456,84L312,272L466,277Z" fill="#212728" stroke="#212728" stroke-width="1.51"/><path d="M312,620L277,802L474,782Z" fill="#232d30" stroke="#232d30" stroke-width="1.51"/><path d="M448,984L661,932L617,810Z" fill="#263c3c" stroke="#263c3c" stroke-width="1.51"/><path d="M154,595L277,802L312,620Z" fill="#232b2e" stroke="#232b2e" stroke-width="1.51"/><path d="M820,433L792,272L655,283Z" fill="#242e2e" stroke="#242e2e" stroke-width="1.51"/><path d="M655,283L657,122L466,277Z" fill="#222a2a" stroke="#222a2a" stroke-width="1.51"/><path d="M287,426L154,595L312,620Z" fill="#222a2b" stroke="#222a2b" stroke-width="1.51"/><path d="M139,450L154,595L287,426Z" fill="#212929" stroke="#212929" stroke-width="1.51"/><path d="M617,810L826,803L826,625Z" fill="#263335" stroke="#263335" stroke-width="1.51"/><path d="M155,276L139,450L287,426Z" fill="#212728" stroke="#212728" stroke-width="1.51"/><path d="M617,810L661,932L826,803Z" fill="#263638" stroke="#263638" stroke-width="1.51"/><path d="M448,984L617,810L474,782Z" fill="#253436" stroke="#253436" stroke-width="1.51"/><path d="M820,433L946,425L792,272Z" fill="#253030" stroke="#253030" stroke-width="1.51"/><path d="M826,625L946,425L820,433Z" fill="#253232" stroke="#253232" stroke-width="1.51"/><path d="M993,612L946,425L826,625Z" fill="#263334" stroke="#263334" stroke-width="1.51"/><path d="M825,94L657,122L792,272Z" fill="#232b2b" stroke="#232b2b" stroke-width="1.51"/><path d="M792,272L657,122L655,283Z" fill="#232b2c" stroke="#232b2c" stroke-width="1.51"/><path d="M312,272L155,276L287,426Z" fill="#212728" stroke="#212728" stroke-width="1.51"/><path d="M282,121L155,276L312,272Z" fill="#202426" stroke="#202426" stroke-width="1.51"/><path d="M657,122L456,84L466,277Z" fill="#212828" stroke="#212828" stroke-width="1.51"/><path d="M322,949L448,984L474,782Z" fill="#253939" stroke="#253939" stroke-width="1.51"/><path d="M277,802L322,949L474,782Z" fill="#243033" stroke="#243033" stroke-width="1.51"/><path d="M119,957L322,949L277,802Z" fill="#243536" stroke="#243536" stroke-width="1.51"/><path d="M983,775L993,612L826,625Z" fill="#263436" stroke="#263436" stroke-width="1.51"/><path d="M-21,636L144,810L154,595Z" fill="#20282a" stroke="#20282a" stroke-width="1.51"/><path d="M154,595L144,810L277,802Z" fill="#222a2e" stroke="#222a2e" stroke-width="1.51"/><path d="M456,84L282,121L312,272Z" fill="#202526" stroke="#202526" stroke-width="1.51"/><path d="M946,425L951,254L792,272Z" fill="#242f2f" stroke="#242f2f" stroke-width="1.51"/><path d="M1129,292L951,254L946,425Z" fill="#253031" stroke="#253031" stroke-width="1.51"/><path d="M661,932L817,956L826,803Z" fill="#273d3d" stroke="#273d3d" stroke-width="1.51"/><path d="M826,803L983,775L826,625Z" fill="#263437" stroke="#263437" stroke-width="1.51"/><path d="M661,1104L817,956L661,932Z" fill="#294a46" stroke="#294a46" stroke-width="1.51"/><path d="M976,937L983,775L826,803Z" fill="#263639" stroke="#263639" stroke-width="1.51"/><path d="M657,122L609,-71L456,84Z" fill="#202526" stroke="#202526" stroke-width="1.51"/><path d="M951,254L825,94L792,272Z" fill="#232d2d" stroke="#232d2d" stroke-width="1.51"/><path d="M282,121L142,138L155,276Z" fill="#1f2324" stroke="#1f2324" stroke-width="1.51"/><path d="M-23,422L-21,636L139,450Z" fill="#1e2525" stroke="#1e2525" stroke-width="1.51"/><path d="M149,-56L142,138L282,121Z" fill="#1d2022" stroke="#1d2022" stroke-width="1.51"/><path d="M139,450L-21,636L154,595Z" fill="#1f2728" stroke="#1f2728" stroke-width="1.51"/><path d="M-23,422L139,450L155,276Z" fill="#1f2425" stroke="#1f2425" stroke-width="1.51"/><path d="M-23,280L-23,422L155,276Z" fill="#1c2222" stroke="#1c2222" stroke-width="1.51"/><path d="M493,1141L661,1104L448,984Z" fill="#28514a" stroke="#28514a" stroke-width="1.51"/><path d="M448,984L661,1104L661,932Z" fill="#284945" stroke="#284945" stroke-width="1.51"/><path d="M302,1114L493,1141L448,984Z" fill="#285049" stroke="#285049" stroke-width="1.51"/><path d="M144,810L119,957L277,802Z" fill="#232e31" stroke="#232e31" stroke-width="1.51"/><path d="M-45,802L119,957L144,810Z" fill="#202b2e" stroke="#202b2e" stroke-width="1.51"/><path d="M1150,634L1127,454L993,612Z" fill="#263436" stroke="#263436" stroke-width="1.51"/><path d="M817,956L976,937L826,803Z" fill="#273e3f" stroke="#273e3f" stroke-width="1.51"/><path d="M949,1115L976,937L817,956Z" fill="#294c49" stroke="#294c49" stroke-width="1.51"/><path d="M993,612L1127,454L946,425Z" fill="#263335" stroke="#263335" stroke-width="1.51"/><path d="M951,254L991,103L825,94Z" fill="#232b2d" stroke="#232b2d" stroke-width="1.51"/><path d="M1150,634L993,612L983,775Z" fill="#263538" stroke="#263538" stroke-width="1.51"/><path d="M302,1114L448,984L322,949Z" fill="#274642" stroke="#274642" stroke-width="1.51"/><path d="M142,138L-23,280L155,276Z" fill="#1d2122" stroke="#1d2122" stroke-width="1.51"/><path d="M796,-86L609,-71L657,122Z" fill="#1f2626" stroke="#1f2626" stroke-width="1.51"/><path d="M456,84L298,-34L282,121Z" fill="#1e2224" stroke="#1e2224" stroke-width="1.51"/><path d="M609,-71L464,-73L456,84Z" fill="#1e2223" stroke="#1e2223" stroke-width="1.51"/><path d="M142,138L-58,117L-23,280Z" fill="#1b1e20" stroke="#1b1e20" stroke-width="1.51"/><path d="M464,-73L298,-34L456,84Z" fill="#1d2122" stroke="#1d2122" stroke-width="1.51"/><path d="M119,957L302,1114L322,949Z" fill="#274340" stroke="#274340" stroke-width="1.51"/><path d="M1115,797L1150,634L983,775Z" fill="#263539" stroke="#263539" stroke-width="1.51"/><path d="M1129,292L991,103L951,254Z" fill="#242e30" stroke="#242e30" stroke-width="1.51"/><path d="M825,94L796,-86L657,122Z" fill="#212829" stroke="#212829" stroke-width="1.51"/><path d="M-21,636L-45,802L144,810Z" fill="#1e2729" stroke="#1e2729" stroke-width="1.51"/><path d="M-211,764L-45,802L-21,636Z" fill="#1c2326" stroke="#1c2326" stroke-width="1.51"/><path d="M-193,605L-21,636L-23,422Z" fill="#1b2223" stroke="#1b2223" stroke-width="1.51"/><path d="M976,937L1115,797L983,775Z" fill="#26363b" stroke="#26363b" stroke-width="1.51"/><path d="M1157,123L1129,292L1292,255Z" fill="#242f32" stroke="#242f32" stroke-width="1.51"/><path d="M1127,454L1129,292L946,425Z" fill="#253133" stroke="#253133" stroke-width="1.51"/><path d="M661,1104L802,1149L817,956Z" fill="#29544d" stroke="#29544d" stroke-width="1.51"/><path d="M976,937L1156,975L1115,797Z" fill="#273f41" stroke="#273f41" stroke-width="1.51"/><path d="M493,1141L802,1149L661,1104Z" fill="#295b51" stroke="#295b51" stroke-width="1.51"/><path d="M609,-71L489,-213L464,-73Z" fill="#1b1f20" stroke="#1b1f20" stroke-width="1.51"/><path d="M953,-60L796,-86L825,94Z" fill="#1f2728" stroke="#1f2728" stroke-width="1.51"/><path d="M298,-34L149,-56L282,121Z" fill="#1d1f21" stroke="#1d1f21" stroke-width="1.51"/><path d="M313,-240L149,-56L298,-34Z" fill="#191b1d" stroke="#191b1d" stroke-width="1.51"/><path d="M119,957L99,1150L302,1114Z" fill="#264a45" stroke="#264a45" stroke-width="1.51"/><path d="M-45,802L-51,947L119,957Z" fill="#1f3030" stroke="#1f3030" stroke-width="1.51"/><path d="M802,1149L949,1115L817,956Z" fill="#29554f" stroke="#29554f" stroke-width="1.51"/><path d="M149,-56L-58,117L142,138Z" fill="#1b1d1f" stroke="#1b1d1f" stroke-width="1.51"/><path d="M-218,443L-193,605L-23,422Z" fill="#1a2020" stroke="#1a2020" stroke-width="1.51"/><path d="M-45,802L-211,764L-51,947Z" fill="#1b2427" stroke="#1b2427" stroke-width="1.51"/><path d="M-218,443L-23,422L-213,287Z" fill="#191e1e" stroke="#191e1e" stroke-width="1.51"/><path d="M1117,-77L953,-60L991,103Z" fill="#20282a" stroke="#20282a" stroke-width="1.51"/><path d="M991,103L953,-60L825,94Z" fill="#22292b" stroke="#22292b" stroke-width="1.51"/><path d="M464,-73L313,-240L298,-34Z" fill="#1a1d1e" stroke="#1a1d1e" stroke-width="1.51"/><path d="M625,-231L489,-213L609,-71Z" fill="#1a1e1f" stroke="#1a1e1f" stroke-width="1.51"/><path d="M625,-231L609,-71L780,-221Z" fill="#1a2020" stroke="#1a2020" stroke-width="1.51"/><path d="M1129,292L1157,123L991,103Z" fill="#232d2f" stroke="#232d2f" stroke-width="1.51"/><path d="M1331,444L1129,292L1127,454Z" fill="#253335" stroke="#253335" stroke-width="1.51"/><path d="M-65,1102L99,1150L119,957Z" fill="#234640" stroke="#234640" stroke-width="1.51"/><path d="M302,1114L99,1150L493,1141Z" fill="#27564d" stroke="#27564d" stroke-width="1.51"/><path d="M493,1141L99,1150L802,1149Z" fill="#285a50" stroke="#285a50" stroke-width="1.51"/><path d="M-213,287L-23,422L-23,280Z" fill="#1a1f1f" stroke="#1a1f1f" stroke-width="1.51"/><path d="M1140,1106L1156,975L976,937Z" fill="#294d4b" stroke="#294d4b" stroke-width="1.51"/><path d="M1115,797L1290,645L1150,634Z" fill="#26353a" stroke="#26353a" stroke-width="1.51"/><path d="M1150,634L1290,645L1127,454Z" fill="#263538" stroke="#263538" stroke-width="1.51"/><path d="M1334,787L1290,645L1115,797Z" fill="#27383d" stroke="#27383d" stroke-width="1.51"/><path d="M780,-221L609,-71L796,-86Z" fill="#1c2222" stroke="#1c2222" stroke-width="1.51"/><path d="M-193,605L-211,764L-21,636Z" fill="#1a2123" stroke="#1a2123" stroke-width="1.51"/><path d="M-51,947L-65,1102L119,957Z" fill="#213c39" stroke="#213c39" stroke-width="1.51"/><path d="M-218,443L-211,764L-193,605Z" fill="#191f20" stroke="#191f20" stroke-width="1.51"/><path d="M-58,117L-213,287L-23,280Z" fill="#191d1d" stroke="#191d1d" stroke-width="1.51"/><path d="M977,-203L780,-221L796,-86Z" fill="#1b2122" stroke="#1b2122" stroke-width="1.51"/><path d="M977,-203L796,-86L953,-60Z" fill="#1c2325" stroke="#1c2325" stroke-width="1.51"/><path d="M489,-213L313,-240L464,-73Z" fill="#181c1d" stroke="#181c1d" stroke-width="1.51"/><path d="M-57,-71L-201,126L-58,117Z" fill="#17181a" stroke="#17181a" stroke-width="1.51"/><path d="M625,-231L313,-240L489,-213Z" fill="#171b1c" stroke="#171b1c" stroke-width="1.51"/><path d="M1290,645L1331,444L1127,454Z" fill="#263639" stroke="#263639" stroke-width="1.51"/><path d="M1331,444L1292,255L1129,292Z" fill="#253336" stroke="#253336" stroke-width="1.51"/><path d="M-235,978L-65,1102L-51,947Z" fill="#1f3936" stroke="#1f3936" stroke-width="1.51"/><path d="M1156,975L1334,787L1115,797Z" fill="#273a3e" stroke="#273a3e" stroke-width="1.51"/><path d="M949,1115L1140,1106L976,937Z" fill="#29544f" stroke="#29544f" stroke-width="1.51"/><path d="M802,1149L1140,1106L949,1115Z" fill="#295d55" stroke="#295d55" stroke-width="1.51"/><path d="M-57,-71L-58,117L149,-56Z" fill="#18191b" stroke="#18191b" stroke-width="1.51"/><path d="M-58,117L-201,126L-213,287Z" fill="#17191b" stroke="#17191b" stroke-width="1.51"/><path d="M1327,962L1334,787L1156,975Z" fill="#284547" stroke="#284547" stroke-width="1.51"/><path d="M1290,645L1487,596L1331,444Z" fill="#284342" stroke="#284342" stroke-width="1.51"/><path d="M-32,-238L-57,-71L149,-56Z" fill="#141617" stroke="#141617" stroke-width="1.51"/><path d="M1298,-73L1117,-77L1157,123Z" fill="#20292c" stroke="#20292c" stroke-width="1.51"/><path d="M1157,123L1117,-77L991,103Z" fill="#222a2d" stroke="#222a2d" stroke-width="1.51"/><path d="M1117,-77L977,-203L953,-60Z" fill="#1d2426" stroke="#1d2426" stroke-width="1.51"/><path d="M625,-231L149,-253L313,-240Z" fill="#16191a" stroke="#16191a" stroke-width="1.51"/><path d="M313,-240L149,-253L149,-56Z" fill="#17191a" stroke="#17191a" stroke-width="1.51"/><path d="M-218,443L-235,978L-211,764Z" fill="#192021" stroke="#192021" stroke-width="1.51"/><path d="M-211,764L-235,978L-51,947Z" fill="#1c2a2b" stroke="#1c2a2b" stroke-width="1.51"/><path d="M1453,276L1292,255L1331,444Z" fill="#273e3d" stroke="#273e3d" stroke-width="1.51"/><path d="M1453,276L1337,128L1292,255Z" fill="#263c3b" stroke="#263c3b" stroke-width="1.51"/><path d="M1292,255L1337,128L1157,123Z" fill="#243134" stroke="#243134" stroke-width="1.51"/><path d="M1288,1111L1327,962L1156,975Z" fill="#295350" stroke="#295350" stroke-width="1.51"/><path d="M1140,1106L1288,1111L1156,975Z" fill="#295652" stroke="#295652" stroke-width="1.51"/><path d="M1492,1143L1288,1111L1140,1106Z" fill="#27665e" stroke="#27665e" stroke-width="1.51"/><path d="M149,-253L-32,-238L149,-56Z" fill="#141616" stroke="#141616" stroke-width="1.51"/><path d="M-57,-71L-239,-54L-201,126Z" fill="#141516" stroke="#141516" stroke-width="1.51"/><path d="M1487,596L1290,645L1463,770Z" fill="#294847" stroke="#294847" stroke-width="1.51"/><path d="M1505,443L1453,276L1331,444Z" fill="#284643" stroke="#284643" stroke-width="1.51"/><path d="M1463,770L1290,645L1334,787Z" fill="#284345" stroke="#284345" stroke-width="1.51"/><path d="M1463,770L1334,787L1496,956Z" fill="#284c4c" stroke="#284c4c" stroke-width="1.51"/><path d="M1496,956L1334,787L1327,962Z" fill="#29504e" stroke="#29504e" stroke-width="1.51"/><path d="M-235,978L-229,1130L-65,1102Z" fill="#1d403a" stroke="#1d403a" stroke-width="1.51"/><path d="M-65,1102L-229,1130L99,1150Z" fill="#204b42" stroke="#204b42" stroke-width="1.51"/><path d="M-217,-216L-239,-54L-57,-71Z" fill="#0f1112" stroke="#0f1112" stroke-width="1.51"/><path d="M-201,126L-239,-54L-213,287Z" fill="#151718" stroke="#151718" stroke-width="1.51"/><path d="M-213,287L-239,-54L-218,443Z" fill="#16191a" stroke="#16191a" stroke-width="1.51"/><path d="M-218,443L-239,-54L-235,978Z" fill="#181d1d" stroke="#181d1d" stroke-width="1.51"/><path d="M1459,-53L1298,-73L1337,128Z" fill="#233636" stroke="#233636" stroke-width="1.51"/><path d="M1337,128L1298,-73L1157,123Z" fill="#222f32" stroke="#222f32" stroke-width="1.51"/><path d="M1117,-77L1164,-227L977,-203Z" fill="#1b2225" stroke="#1b2225" stroke-width="1.51"/><path d="M1487,596L1505,443L1331,444Z" fill="#284945" stroke="#284945" stroke-width="1.51"/><path d="M625,-231L1458,-242L149,-253Z" fill="#191e1e" stroke="#191e1e" stroke-width="1.51"/><path d="M780,-221L1164,-227L625,-231Z" fill="#192020" stroke="#192020" stroke-width="1.51"/><path d="M977,-203L1164,-227L780,-221Z" fill="#1a2021" stroke="#1a2021" stroke-width="1.51"/><path d="M1298,-73L1164,-227L1117,-77Z" fill="#1c2528" stroke="#1c2528" stroke-width="1.51"/><path d="M1298,-73L1297,-203L1164,-227Z" fill="#1c2628" stroke="#1c2628" stroke-width="1.51"/><path d="M1453,276L1461,112L1337,128Z" fill="#26403e" stroke="#26403e" stroke-width="1.51"/><path d="M1659,292L1461,112L1453,276Z" fill="#274d47" stroke="#274d47" stroke-width="1.51"/><path d="M1492,1143L1496,956L1327,962Z" fill="#28665e" stroke="#28665e" stroke-width="1.51"/><path d="M1675,613L1652,446L1487,596Z" fill="#295b52" stroke="#295b52" stroke-width="1.51"/><path d="M1487,596L1652,446L1505,443Z" fill="#29544e" stroke="#29544e" stroke-width="1.51"/><path d="M-32,-238L-217,-216L-57,-71Z" fill="#0f1011" stroke="#0f1011" stroke-width="1.51"/><path d="M1459,-53L1297,-203L1298,-73Z" fill="#1f3131" stroke="#1f3131" stroke-width="1.51"/><path d="M1461,112L1459,-53L1337,128Z" fill="#253e3c" stroke="#253e3c" stroke-width="1.51"/><path d="M1641,-65L1459,-53L1461,112Z" fill="#244541" stroke="#244541" stroke-width="1.51"/><path d="M1505,443L1659,292L1453,276Z" fill="#28504a" stroke="#28504a" stroke-width="1.51"/><path d="M1633,780L1487,596L1463,770Z" fill="#295450" stroke="#295450" stroke-width="1.51"/><path d="M1496,956L1633,780L1463,770Z" fill="#295653" stroke="#295653" stroke-width="1.51"/><path d="M1496,956L1642,944L1633,780Z" fill="#28645d" stroke="#28645d" stroke-width="1.51"/><path d="M1288,1111L1492,1143L1327,962Z" fill="#28665e" stroke="#28665e" stroke-width="1.51"/><path d="M802,1149L1492,1143L1140,1106Z" fill="#285f59" stroke="#285f59" stroke-width="1.51"/><path d="M1633,780L1675,613L1487,596Z" fill="#295b54" stroke="#295b54" stroke-width="1.51"/><path d="M1675,613L1659,292L1652,446Z" fill="#296055" stroke="#296055" stroke-width="1.51"/><path d="M1652,446L1659,292L1505,443Z" fill="#295950" stroke="#295950" stroke-width="1.51"/><path d="M1633,780L1642,944L1675,613Z" fill="#28615a" stroke="#28615a" stroke-width="1.51"/><path d="M1646,1153L1642,944L1496,956Z" fill="#247669" stroke="#247669" stroke-width="1.51"/><path d="M1459,-53L1458,-242L1297,-203Z" fill="#1e3432" stroke="#1e3432" stroke-width="1.51"/><path d="M1297,-203L1458,-242L1164,-227Z" fill="#1b2929" stroke="#1b2929" stroke-width="1.51"/><path d="M1164,-227L1458,-242L625,-231Z" fill="#192022" stroke="#192022" stroke-width="1.51"/><path d="M1641,-65L1458,-242L1459,-53Z" fill="#21413c" stroke="#21413c" stroke-width="1.51"/><path d="M1675,613L1669,102L1659,292Z" fill="#285e53" stroke="#285e53" stroke-width="1.51"/><path d="M1659,292L1669,102L1461,112Z" fill="#27524b" stroke="#27524b" stroke-width="1.51"/><path d="M1669,102L1641,-65L1461,112Z" fill="#264f48" stroke="#264f48" stroke-width="1.51"/><path d="M1492,1143L1646,1153L1496,956Z" fill="#247a6c" stroke="#247a6c" stroke-width="1.51"/><path d="M1642,944L1646,1153L1675,613Z" fill="#276d63" stroke="#276d63" stroke-width="1.51"/><path d="M802,1149L1646,1153L1492,1143Z" fill="#276b61" stroke="#276b61" stroke-width="1.51"/><path d="M99,1150L1646,1153L802,1149Z" fill="#286056" stroke="#286056" stroke-width="1.51"/><path d="M1669,102L1658,-238L1641,-65Z" fill="#225148" stroke="#225148" stroke-width="1.51"/><path d="M1641,-65L1658,-238L1458,-242Z" fill="#1f453e" stroke="#1f453e" stroke-width="1.51"/></svg>